<?xml version="1.0" encoding="utf-8"?>
<!-- Generator: Adobe Illustrator 28.3.0, SVG Export Plug-In . SVG Version: 6.00 Build 0)  -->
<svg version="1.1" id="Layer_1" xmlns="http://www.w3.org/2000/svg" xmlns:xlink="http://www.w3.org/1999/xlink" x="0px" y="0px"
	 viewBox="0 0 760.4 654.5" style="enable-background:new 0 0 760.4 654.5;" xml:space="preserve">
<style type="text/css">
	.st0{fill:#FF7828;}
	.st1{fill:#FFFFFF;}
	.st2{font-family:'ComicSansMS';}
	.st3{font-size:90px;}
</style>
<path class="st0" d="M173.7,439.3c5.3-0.3,10.1-0.8,14.9-0.8c20-0.3,40-0.5,59.9-0.4c2.8,0,6.3,1.6,8.2,3.7
	c18.4,19.9,40.1,35,65.5,44.5c21.8,8.2,44.4,11.2,67.7,9.7c28.3-1.8,54.6-9.8,78.7-24.8c13.7-8.5,25.6-19,36.7-30.6
	c1.6-1.6,4.1-3.2,6.2-3.3c24-0.3,47.9-0.2,71.9-0.3c1.8,0,3.5,0,6.3,0c-17.4,32.5-39.7,59.4-68.5,80.7
	c-38.2,28.2-81.1,44.3-128.5,46.8C282.7,570.2,203.6,502.1,173.7,439.3z"/>
<path class="st0" d="M586.1,216.8c-26.8,0-52.9,0.1-79.1-0.2c-2.2,0-4.9-2-6.6-3.7c-16.8-17.1-36.3-30.2-58.6-38.9
	c-41.1-15.9-82.3-15.9-123.4-0.1c-22.2,8.5-41.5,21.6-58.1,38.8c-3,3.1-6.1,4.4-10.5,4.4c-23.3-0.2-46.7-0.1-70-0.1
	c-1.8,0-3.5,0-5.6,0C205.7,155.1,280.5,95.4,376.3,94C475.3,92.6,552.8,151.8,586.1,216.8z"/>
<path class="st0" d="M171.9,521.8c17.3,18.6,36.7,34.8,58.3,48.3c26.9,16.8,55.8,28.8,87,35.3c5.7,1.2,11.4,2.2,17.1,3.5
	c1.9,0.4,3.6,1.5,5.4,2.2c1.5,0.6,3.1,1.4,4.6,1.4c7.9,0,15.8-0.1,23.6-0.3c16.3-0.6,32.7-0.5,48.8-2.2c31.4-3.3,61.1-13,89.4-26.9
	c0.4-0.2,0.9-0.3,2.1-0.7c-0.8,1.6-1.4,2.8-2.8,5.5c4-0.7,6.8-1.2,10.2-1.8c1.8,1.5,4.2,3.6,6.6,5.6c0.6-0.5,1.2-1,1.8-1.5
	c-1.9-2.5-3.7-5.1-6.2-8.4c5,0.7,9.1,1.4,13.2,2c0.1-0.6,0.3-1.2,0.4-1.8c-4.2-1.5-8.3-3.1-13.3-4.9c8.6-5.4,16.2-10.4,24-14.9
	c2.1-1.2,5.2-0.8,7.6-1.5c3.2-1,4.9-3,2.4-5.8c10.6-9.5,21-18.5,31-28c5.3-5.1,9.8-11,14.7-16.5c2.7-3,4.5-7.7,10.3-4.9
	c1.3,0.6,4.5,0.2,4.9-0.6c1.2-2.5,0.2-4.9-2.9-5.8c-0.6-0.2-1.2-0.4-2.9-0.9c1.6-1.1,2.4-1.9,3.4-2.3c1.1-0.4,2.3-0.4,3.5-0.6
	c-0.6-1.2-1.1-2.4-1.9-4.1c5.3-7.6,11.2-15.4,16.2-23.8c3.6-6.1,6.3-12.8,8.6-19.5c2.7-8,7.4-6.9,11.5-4.1c6-1.1,10.8-1.9,15.6-2.8
	c0.3,0.5,0.5,1,0.8,1.5c-1.2,1.6-2.4,3.3-3.6,4.9c-8.9,11.4-16,23.7-18.8,38.1c-1.6,8.2-0.9,16.2,3,23.8c1.9,3.7-1.3,8.7-5.3,8.4
	c-3-0.3-3.4,1.2-3.5,3.5c-0.2,2.9-1.5,4.2-4.8,3.1c0.4-1.1,1-2,1-2.9c0-1-0.4-2.1-0.6-3.1c-1.2,0.3-3.2,0.4-3.4,1
	c-2.4,7.1-9.4,7-14.6,9.8c-7.2,4-13.7,9.1-20.5,13.8c-8.5,6-12.6,15.1-15.6,24.6c-1.5,4.8-1.6,10-2.5,16c-2.8-2.1-5.6-4.2-8.6-6.5
	c-3.9,5.9,1,8.4,4.7,11.5c-2.6,1.8-4.9,3.4-7.2,5c0-0.5,0.1-1,0.1-1.4c-3.6-0.8-7.2-1.9-10.8-2.2c-4.4-0.3-8.9,0.5-13.3,0.3
	c-1.7-0.1-3.4-1.6-4-1.9c-4.1,1.9-7.6,3.2-10.8,5c-9.1,5-18.1,10.2-27.1,15.3c-0.6-0.7-1.9-2.3-3.3-3.9c-0.6,0.7-1.8,1.4-1.8,2.1
	c0.2,2,0.8,4.1,1.5,7.3c-1.7,3-4.1,7.4-5.8,10.4c-2.7,2.6-4.5,4.2-6.3,5.9c1.4,0.7,2.8,1.4,4.2,2.2c-4.1,1.3-8.6,2.9-13.2,4
	c-1.3,0.3-3.4-0.5-4.4-1.5c-6.4-6.7-14.7-8.9-23.4-9.9c-3.7-0.4-6.6-0.8-6.7-5.3c0-0.4-0.8-0.8-2.1-1.9c0,7.8-5.4,7.1-10,7.6
	c-8.9,1.1-17.3,3.7-24.5,9c-3,2.2-5.3,2.4-7.3-1c-0.3-0.6-0.8-1.4-1.3-1.4c-1.5-0.2-3-0.1-4.5-0.2c0.2,1.3,0.3,2.7,0.8,3.9
	c1,2.3,5.1,3.3,3,7c-2.4,4.1-4.2,8.9-10.6,7.8c-2.6-0.4-5.4,0.1-8-0.4c-1.6-0.3-3.8-1.3-4.4-2.6c-5.3-10.7-14.4-16.5-25.2-19.7
	c-14.8-4.5-29.8-5.5-44.5,0.8c-2.1,0.9-4,2.3-6,3.5c-2.3,1.5-4.8,4.5-6.8,4.2c-4.8-0.7-9.5-2.8-14.1-4.6c-0.8-0.3-1.4-1.8-1.6-2.9
	c-2.3-15.8-13.5-24.7-26-31.5c-7.7-4.2-17-5.3-25.5-7.9c-2.6-0.8-5-2.3-7.6-2.9c-1.3-0.3-3.5,0.2-4.2,1.1c-4.4,5.7-9.7,6.8-15.5,2.9
	c-1.2-0.8-2.5-1.6-3.8-2.4c-3.7-2.5-6.2-5.1-4.9-10.6c1-4.3-0.6-9.2-1.5-13.7c-0.6-2.8-2.8-5.2-0.8-8.3c0.3-0.5-1.9-3.5-2.3-3.4
	c-3.4,1.2-4.2-1.4-5.7-3.3c-7.3-9.5-16.1-17.5-27.5-21.5c-5.6-1.9-12-1.5-18.1-2.4c-1.9-0.3-3.7-1.3-5.4-2.2
	c-0.8-0.4-1.2-1.6-1.8-2.3c-4.3-5.2-7.3-9.7-3.3-17.5c4-7.8,2.4-17.1-0.8-25.4c-2.6-6.7-7.7-12.8-9-19.6
	c-1.4-7.7-6.3-10.7-12.8-13.4c7.9-5.9,15.5-2.6,21.8-2.1c-0.8,2.9-1.5,5.6-2.2,8.3c2-0.6,4-1.3,7.1-2.3
	c12.7,26.2,29.3,51.2,49.2,73.8c-3.6-1.5-7.3-2.9-10.9-4.4c-0.6-1.4-0.9-3.3-2-4.1c-1.1-0.8-3-0.8-4.5-0.6c-0.4,0-1.1,2.3-0.8,2.9
	c0.9,1.4,2.1,3,3.6,3.5c0.9,0.3,2.5-1.2,3.8-1.9c0.8,1.4,1.5,2.8,2.3,4.2c1.6,2.6,3.3,5.1,4.8,7.8c0.7,1.2,1,2.5,1.5,3.7
	c1.4-1.4,3.9-2.7,4-4.1C174,526.8,172.7,524.3,171.9,521.8z M635.1,489.2c4.7-6.1-4.7-7.5-4.9-12.6c-1.4,2.2-2.2,4.3-2.2,6.4
	c0.1,3,0.4,6.2,1.5,9c0.7,1.8,2.6,3.2,4.3,4.4c0.5,0.4,2.9-0.7,2.8-1C636.4,493.7,635.8,491.9,635.1,489.2z M601,528.8
	c3.7-2.6,7.4-5,11-7.8c0.5-0.4,0.5-2.2,0.1-3c-0.2-0.5-1.9-0.8-2.6-0.4c-3.4,1.9-6.8,3.9-10,6.2c-0.7,0.5-1,2-1,3
	C598.5,527.2,599.6,527.7,601,528.8z M480.4,602.4c0.1,0.1,0.9,1.7,1.7,1.7c3.8,0.1,6.4-2,6.5-5.9c0-1.1-1.4-3.1-2.3-3.2
	C482.1,594.5,480.5,597.1,480.4,602.4z M630.6,497c-5.9-2.2-7.6-1-8,5.6c-0.1,0.9,0.7,2.7,1,2.7c1.2,0,2.8-0.3,3.4-1.1
	C628.4,502.1,629.3,499.6,630.6,497z M508.5,595.7c-3.4-2.8-5.9-4.9-8.5-6.9c-0.1-0.1-1.4,1.3-2.1,2c2.2,2.3,4.4,4.6,6.8,6.7
	C505,597.8,506.4,596.8,508.5,595.7z M108.8,448.1c1.6-1.3,2.6-2.1,3.6-3c-1.8-1.1-3.5-2.5-5.5-3.1c-0.8-0.2-2.1,1.4-3.1,2.1
	C105.4,445.4,106.9,446.6,108.8,448.1z M189.4,550.1c0-0.5,0.1-1,0.1-1.5c-1.6-0.9-3.1-2.2-4.8-2.4c-1.1-0.1-2.3,1.5-3.5,2.4
	c1.5,1,2.9,2.4,4.6,3C186.8,551.7,188.2,550.6,189.4,550.1z M293.2,618.1c0.6,0.3,1.1,0.5,1.7,0.8c1-2.4,2.1-4.8,3-7.2
	c0-0.1-1.2-0.7-1.9-1C295.1,613.2,294.1,615.7,293.2,618.1z M638.4,512.5c0.8-0.5,1.6-0.9,2.3-1.4c0.7-1.1,2.2-2.4,1.9-3.1
	c-0.4-1.3-2-2.1-3-3.2c-0.9,1.2-2.4,2.3-2.6,3.6C636.9,509.7,637.9,511.1,638.4,512.5z"/>
<path class="st0" d="M191.1,70.4c-0.7,1.4-1.3,2.4-1.8,3.5c5,1.9,6.6,1.1,7.1-3.2c0.8-6.1,1.2-6.3,6.6-3.5c3.3,1.7,6.7,2.7,12.2,2
	c7.9-1,16.1-1.6,23.3-4.4c13-5.1,24.3-13,31.1-26c0.6-1.2,1-2.4,1.5-3.7c0.9-2.8,1-7,2.9-8c4.5-2.6,9.9-3.8,15-5.3
	c0.7-0.2,1.8,1.2,2.7,1.8c4.1,2.7,8.4,5.2,12.4,8c2.1,1.5,3.8,3.5,5.8,5.2c1.8,1.6,3.5,3.2,5.3,4.8c0.5-0.4,0.9-0.8,1.4-1.2
	c-0.7-1.9-1.3-3.8-2-5.8c2.7,0,5.3,0.3,7.8-0.1c5.6-0.8,10.3-1.2,13.9,4.9c2.4,4.2,7.2,6.5,12.5,5.7c0.3-0.6,0.6-1.1,0.9-1.7
	c-1.8-0.9-3.6-2-5.5-2.8c-4.7-2.1-5.3-4.6-1.1-7.4c5.1-3.5,11.1-5.9,16-9.7c4-3.2,7.5-7.5,10.3-11.9c3.6-5.7,8.6-2.4,12.9-3.3
	c0,2.9,0,5.2,0,7.6c2.5-1.5,5-3,8.1-4.8c5,9.3,13.6,15.7,25.1,19.4c-1.6,1.1-2.2,1.7-3.1,2.1c-3.5,1.6-3.1,3.8-1.1,6.3
	c2.4,2.9,4.7,5.9,7.8,9.9C328.6,38.7,250.9,64.1,184.8,125c-1.1-1-2-1.7-2.9-2.4c-3.1-2.6-3.7-1.9-5.1,2c-2.3,6.4-3.6,13.2-8.7,18.4
	c-6.6,6.8-12.8,13.9-18.8,21.2c-2.2,2.6-3.3,6.2-5.3,9c-8.7,12.3-14.8,26-21.3,39.4c-1.7,3.5-3.5,5.4-7.8,5.2
	c-6.8-0.5-13.6-0.1-21.1-1.3c6.4-5.6,12.8-11.1,18.2-15.8c0.6-3.4,0.6-6.4,1.8-9c4.7-10.8,8.3-21.8,5.6-33.9c-0.2-1-0.5-1.9-0.8-2.9
	c-0.9-2.6-3.3-5.9-2.4-7.6c2.3-4.7,6-8.8,9.2-13c0.4-0.6,1.8-0.8,2.7-0.6c12.9,2.6,23.5-2.1,33.1-10.1c10.3-8.6,18.7-18.5,22.7-31.5
	c1.1-3.6,1.7-7.7,1.1-11.3C184,75.4,186.1,72.6,191.1,70.4z M381.9,26.2c-2.4-0.8-4.8-1.5-7.1-2.4c-1.7-0.7-3.2-1.7-4.8-2.5
	c-0.4,2.1-0.7,4.1-1.2,6.2c-0.4,1.7-0.6,3.6-1.4,5.1c-0.7,1.4-2.1,2.5-3.2,3.7c0.3-2.3,0.7-4.5,1-6.7c-5.4,1.2-9.7,2.2-14.7,3.3
	c6.5,7.1,6.5,7.1,13.6,3.4c-0.3,2.2-1.4,6.1-0.8,6.4c4.9,2.5,5.1-3.9,9.1-5.2c3.1,3.8,5.9,1.2,8.9-1.3c0.9-0.7,2.1-1.1,3-1.8
	c1.4-1.2,2.7-2.6,4-4c-1.5-0.9-3-1.7-4.4-2.6c-0.8-0.5-1.5-1.2-2.3-1.8c2.1,0.5,4.1,0.9,7,1.6c-1-4-1.8-6.7-5.4-5.8
	C381.2,22.3,379.8,23.9,381.9,26.2z M143.2,149c-0.7,0.3-1.4,0.6-2.1,0.9c0.5,3.2,0.8,6.5,1.5,9.6c0.3,1.3,1.5,2.3,2.3,3.5
	c1-1.1,3-2.6,2.7-3.3C146.5,156,144.7,152.5,143.2,149z M228.8,82.4c-2.8,2.1-4.9,3.8-7.1,5.5c1.6,0.7,3.4,2.3,4.8,2
	C229.5,89.3,230.7,87.1,228.8,82.4z M396.7,42.2c0.5-0.3,1.1-0.6,1.6-0.9c-1.4-2.3-2.7-4.7-4.2-7c-0.1-0.2-1.6,0.6-2.4,0.9
	c1.3,2.3,2.7,4.6,4.1,6.8C395.9,42.2,396.4,42.1,396.7,42.2z"/>
<path class="st0" d="M1.8,253.2c0.9-6.7,7.7-13.7,15.3-13.9c16.2-0.4,32.3-0.2,48.5-0.2c2.7,0,3.4,1.1,2.7,3.8
	c-0.5,2-0.1,4.3,0.5,6.7c3.6-5.3,7.5-3.1,11.4-1.3c0.8-1.2,1.6-2.3,2.5-3.6c1.3,0.6,2.5,1.3,4,2c1.4-2.5,2.8-4.9,4.4-7.7
	c1.2,1.5,1.9,2.4,2.5,3.2c2.3-1.2,4.5-2.4,7-3.6c1,3.3,1.6,7.3,5.2,3.2c3.2-3.6,5.1-4.3,6.4,1.2c0.1,0.5,0.9,0.8,2,1.7
	c0.8-7.1,5.9-5.5,10.1-5.5c205.8,0,411.6,0,617.4-0.2c8,0,11.7,3.6,15.3,10.5c-3.7,0.4-6.9,1.2-10.1,1.2c-68,0.1-136,0-204,0.1
	c-31.3,0-62.6,0.1-93.9,0.1c-115.1,0-230.3-0.1-345.4-0.1c-24.9,0-49.9-0.2-74.8,0.1C19.8,251,10.7,252.4,1.8,253.2z"/>
<path class="st0" d="M541.8,408c0.9,6,1.5,6.5,5.7,3.4c3.5-2.6,6.8-4.2,11.4-2.5c2,0.8,4.8-0.8,7.2-0.8c24.6,0,49.2,0,73.7,0.5
	c4.9,0.1,9.2,2.9,14.9,0.1c3.7-1.8,9.6,1,14.5,1.3c3,0.2,6.1-0.3,9.1-0.5c7.9-0.5,15.8-1,24.6-1.6c-0.4,3.9-0.3,6.8-1.2,9.2
	c-0.5,1.3-2.9,2.4-4.5,2.4c-7.7,0.3-15.3,0.1-23,0.1c-30.3,0-60.6,0.1-91,0.1c-30.3,0-60.5,0.1-90.8-0.1c-9.5-0.1-18.9-1.6-28.3-1.5
	c-15.3,0.1-30.6,1.4-45.9,1.5c-36.8,0.2-73.6,0.1-110.5,0.1c-96.8,0-193.5,0.1-290.3,0.1c-2.1,0-4.2,0-6.5,0
	c1.6-8.7,5.2-11.9,12.8-11.9c11.2,0,22.3-0.2,33.5,0c4.4,0.1,8.9,1,13.3,1.5c2.1,0.2,4.3,0.5,6.4,0.2c19.7-3,39.5-1.5,59.3-0.9
	c15.1,0.5,30.2,0,45.4-0.2c4.8,0,9.7-0.5,14.5-0.5c113.5,0,226.9,0,340.4,0C538.2,408,539.8,408,541.8,408z"/>
<path class="st0" d="M378.8,590.8c-25.3-0.2-49.9-3.9-74.2-11.3c-44.2-13.4-81.8-37.2-113.6-70.4c-18.1-18.8-32.8-40.1-44.4-63.6
	c-0.8-1.6-0.4-3.7-0.6-5.5c2.2,0,5-0.8,6.5,0.3c2.6,1.9,4.7,4.6,6.3,7.5c15.1,27.8,34,52.5,58.3,72.9c30.4,25.5,64.8,43.4,103.5,53
	c35.3,8.7,70.9,10.1,106.5,3.1c63.4-12.5,115.3-44.3,154.4-96.1c8.2-10.8,14.7-22.9,22.1-34.4c1.1-1.7,2.6-3.6,4.4-4.5
	c1.7-0.8,4-0.4,6.1-0.5c-0.1,2.2,0.5,4.8-0.6,6.5c-9.4,14.9-18.1,30.3-28.8,44.2c-29.3,38.1-67.2,65-112.1,82
	C442.4,585.3,411.1,591.1,378.8,590.8z"/>
<path class="st0" d="M146.8,213.9c0.5-1.3,0.8-2.7,1.5-4c29.9-56.9,74.6-97.7,133.8-122.5C320.8,71,361.3,65.3,403.2,69
	c64,5.6,118.1,31.9,163.5,77c19.5,19.5,35.3,41.5,47.4,66.2c0.9,1.7,0.8,3.9,1.2,5.9c-2.5-0.2-5.5,0.3-7.5-0.8
	c-2.1-1.2-3.6-3.8-4.8-6.1c-15.3-28.5-34.9-53.5-59.7-74.3c-37-31-79.3-50.5-127.2-57c-28.6-3.9-57.1-3.5-85.5,2.4
	c-45.2,9.4-85,29.4-119.3,60.2c-19.2,17.2-34.7,37.7-48.5,59.4c-2.3,3.6-5,7.1-8.1,10.1c-1.7,1.7-4.5,2.2-6.9,3.2
	C147.5,214.8,147.1,214.3,146.8,213.9z"/>
<path class="st0" d="M515.8,69.9c1.3-4.8,4.2-5.4,8.8-4.2c6,1.7,12.3,2.3,18.4,3.7c1.9,0.4,3.7,1.5,5.4,2.6c1.3,0.8,2.1,2.3,3.4,2.8
	c1.9,0.7,4.7,1.8,5.8,0.9c1.5-1.1,1.7-3.9,2.3-6c0.3-1.2,0.3-2.4,0.4-3.6c1.4,0.3,2.9,0.2,4,0.9c2.7,1.7,5.1,3.7,7.7,5.6
	c4.2,3.1,1.8,7.7,2.8,11.6c1.8,6.9,2.3,14.2,4.9,20.7c1.7,4.3,5.7,7.8,9.3,11.1c3.6,3.4,7.2,6.6,8.2,11.9c0.2,1,1.6,1.7,2.1,2.7
	c0.9,1.7,1.5,3.6,2.3,5.3c0.4,1,0.9,1.9,1.3,2.9c0.8-0.6,2.3-1.2,2.4-1.9c0.3-2.6,0.2-5.3,0.3-8c2.9,1.2,6.9,3.1,11,4.3
	c4.1,1.1,8.4,1.4,13.6,2.2c-4.1,2.7-7.5,4.9-11.5,7.6c2.2,1.6,4.8,3.4,8,5.8c-0.3-7.3,0.8-8.1,7-6.5c2.5,0.6,5.5,0.4,7.4,1.8
	c4.2,3.1,2,12.3-3.3,14.6c-3.9,1.7-3.8,2.7-0.4,5.2c1.7,1.3,2.8,4.4,3,6.7c1.1,12.5,5.6,23.6,13.3,33.4c3.6,4.5,8,8.3,12.8,13.3
	c-4.3,0-7.7-0.1-11.1,0c-2.9,0.1-6.2-0.5-8.7,0.6c-4.3,1.8-6.4,0.5-8.3-3.3c-5.4-10.7-10.3-21.6-16.8-31.7
	c-9-13.9-19.1-27.2-28.9-40.5c-2.5-3.5-5.8-6.4-8.8-9.6c-2.3-2.4-5-3.9-3-8.6c1.4-3.3-2.8-5.3-7.6-7.3c1,3.3,1.6,5.3,2.1,6.6
	c-4.2-3.5-9-7.4-13.7-11.5c-0.6-0.5-1-1.8-0.9-2.6c0.4-3.1,0-4.6-3.7-3.1c-2.5,1-9-4.2-10.7-8.1c-1.5-3.5-2.8-7.1-8-4.2
	c-0.9,0.5-3-1-4.3-1.8c-5.8-3.5-11.6-7.3-17.5-10.7c-7.4-4.2-7.6-6.6-0.7-11.8c-0.5,2.3-1.3,4.6-1.4,6.9c0,0.6,1.9,1.4,2.9,2.1
	c0.7-2,1.9-4.1,2-6.1C519.5,71.7,517.1,70.8,515.8,69.9z M573.1,103.2c0.5,0.1,1,0.2,1.5,0.2c0-3.2,0.4-6.5-0.1-9.6
	c-1-7.2-3.2-13.5-12.2-13.9c-1.9-0.1-3.8-1.2-5.7-1.8c-0.4,0.5-0.7,1.1-1.1,1.6c1.7,1.7,3.3,3.5,5.2,5.1c2.9,2.5,8.9,3,5.6,9.3
	c-0.1,0.2,0,0.7,0.2,0.9C568.8,97.8,570.9,100.5,573.1,103.2z M627.4,177c0.5,5.3,4.3,6.5,7.3,6.3c1.4-0.1,2.7-4.3,3.7-6.7
	c0.3-0.8-0.3-2.1-0.5-3.1c-1.4,0.3-3.1,0.2-4.2,0.9c-0.8,0.6-0.9,2.3-1.3,3.6C630.9,177.7,629.5,177.4,627.4,177z M611.6,136.1
	c-1.4,3.6-2.4,6.1-3.3,8.6c0,0.1,1.5,0.8,2.2,1.2c0.9-2.3,1.8-4.6,2.6-6.9C613.2,138.7,612.7,138.2,611.6,136.1z"/>
<path class="st0" d="M461.2,210.2c2,2.4,3.9,4.7,6.7,8.2c-3.1,0.2-4.8,0.4-6.6,0.4c-17.3,0-34.7,0.1-52,0c-2.4,0-4.7-1.3-8-2.3
	c-5.7,4.1-22,3.8-26.1-1.8c-1.8,5.5-6.2,4.2-10.1,4.2c-24-0.1-48-0.2-72-0.3c-1,0-1.9-0.1-4.5-0.4c5.4-4,9.6-7.2,14-10.2
	c0.5-0.4,1.8,0.5,2.6,0.2c1.4-0.4,3-0.9,4.1-1.8c2.1-1.7,3.5-4.5,5.8-5.6c45.1-22.6,90-21.4,134.7,1.2c4.2,2.1,7.7,5.7,11.4,8.5
	c-2.6-0.6-5.1-1.3-7.7-1.9C455.9,214.1,458,214.2,461.2,210.2z M392.6,212.6c0,0,0.9,1,2,1.2c1.4,0.3,2.9,0,4.3-0.1
	c-0.2-1.5-0.1-3.2-0.6-4.6c-0.3-0.8-1.4-1.3-2.2-1.9c-2.7-2.1-5.2-4.3-8.1-6.1c-1.4-0.8-4.4-1.4-4.8-0.8c-1.5,2.3-3.5,5.4-3.1,7.8
	c0.5,2.8,3.1,5.6,5.5,7.5C386.4,216.2,389.4,214,392.6,212.6z"/>
<path class="st0" d="M439.1,445c0.2,1.8,0.5,3.6,0.5,5.5c0.1,1.9,0,3.8-0.1,5.6c1.7-0.3,3.4-0.6,5.1-0.9c0.5-0.1,0.9-0.2,1.4-0.3
	c0.3,0.4,0.5,0.8,0.8,1.2c-3.2,2.1-6.3,4.7-9.7,6.2c-16.4,7.1-33.6,10.7-51.3,11.5c-1.7,0.1-3.5-0.8-5.2-1.1c-3-0.6-6.3-2.2-8.9-1.5
	c-7.3,2.2-14.1,1.1-21.8-1c1.9-1.1,3.4-1.9,5-2.8c0-0.5-0.1-0.9-0.1-1.4c-1.9,0-3.9-0.5-5.6,0.1c-13,4.1-22.7-1.8-31.6-9.6
	c2.2-6.1,4.2-11.7,6.2-17.2c4.7,5.8,4.7,5.8,11.9,0.6c0.8-0.6,2.2-0.7,3.3-0.7c27.7,0,55.3,0,83,0c0.5,0,0.9,0.2,2.6,0.6
	c-1.3,2.7-2.5,5-3.6,7.3c-1-1.6-1.6-2.5-2.2-3.5c-1.8,1.8-3.6,3.5-5.5,5.3c1.1,0.7,2.2,2,3.3,2c3.4,0.1,6.7-0.1,10.1-0.6
	c1.5-0.2,3.8-1.1,4.2-2.3c1.6-4.8,4.7-4.4,8.3-3c-4.1-1.2-5.8,0.8-6.3,4.6c-0.3,1.7-1.2,3.3-1.5,5c-0.3,1.3,0,2.8,0,4.2
	c1.4-0.6,3.5-0.8,3.9-1.7C436.8,453.2,437.8,449.1,439.1,445z M410.7,443c-0.4-0.4-0.9-0.7-1.3-1.1c-1.5,1.4-3,2.9-4.5,4.3
	c1.4,1.1,2.9,2.2,5.2,4C410.4,446.8,410.6,444.9,410.7,443z M423.1,460.7c1.5-2.6,2.8-4.7,4.7-7.9C419,456.5,419,456.7,423.1,460.7z
	"/>
<path class="st0" d="M436.1,45c-1.8-0.5-3.6-0.9-5.3-1.4c0.3,2.2,0.6,4.3,0.9,7.3c-1.4-0.4-3.6-0.3-4.3-1.3c-0.7-1-0.4-3.3,0.4-4.6
	c1.6-2.6,3.7-4.9,5.7-7.4c-3.3-2.7-5.1-0.5-7,1.4c-3.7,3.6-4.8,3.5-8.6-0.7c2.8-4.9,7.1-5.6,12.3-4.8c10.4,1.6,20.5,0,30.2-4.3
	c1.9-0.9,4.1-1.9,5.3-3.5c3.3-4.2,6.9-5,11.7-2.6c2.2,1.1,4.9,1.3,7.1,2.4c1.4,0.7,3.3,2.3,3.4,3.7c0.5,4.6,3.4,8.6,1.2,13.9
	c-1.6,3.8,2.5,2.8,3.6,2.6c1.1,2.9,1.9,5.6,3,8.1c0.4,1,1.3,2,2.2,2.7c5.7,4.5,5.9,9.8,1.9,16.4c-7.6-5.1-18.6-4.3-23.7-14.8
	c-2.7,4.6-6.1,2.8-9.5,1.7c-7.6-2.4-15.5-4-22.8-7c-3.1-1.3-5.2-5.1-7.8-7.8c2.4,0.9,4.6,1.9,6-1.7c0.4-1,2.5-1.3,3.6-2.2
	c1.1-0.9,1.8-2.3,2.6-3.4c-1.4-0.8-2.9-2.3-4.3-2.2C440,35.5,436.1,40.7,436.1,45z M456.2,55.5c1.2-1.9,2.5-3.3,2.2-3.8
	c-0.7-1.4-2.1-2.5-3.2-3.7c-0.8,0.8-2.4,1.9-2.2,2.5C453.5,52,454.7,53.2,456.2,55.5z M483.8,47.1c-1.3,2.1-2.8,3.4-2.5,4.2
	c0.4,1.2,1.9,2.2,2.9,3.2c0.8-0.9,2.3-1.8,2.2-2.6C486.2,50.6,485.1,49.4,483.8,47.1z"/>
<path class="st0" d="M711.3,419.2c3.3-11,3.5-11.2,13.4-11.2c6.6,0.1,13.3,0.4,19.9,0.6c0.3,0,0.7,0.2,1,0.1
	c7.3-3.8,7.1,1.5,7.3,6.4c-2.1,1.3-4.4,2.8-6.7,4.2c-0.3-0.5-0.7-0.9-1-1.4c1-0.8,2.4-1.5,2.8-2.6c0.5-1.4,0.1-3.1,0-4.7
	c-1.3,0.5-2.9,0.6-3.7,1.5c-2,2.1-3.1,5.7-5.4,6.7c-2.7,1.2-6.9,2.3-8.5-2.7c-0.4-1.3-1.6-2.3-3.2-4.6
	C725.3,422.9,718.1,419.5,711.3,419.2z"/>
<path class="st0" d="M463.1,445.4c0.5,5.4-5.5,5.4-9,9c0-2.5,0-4.1,0-5.8c-0.6-0.5-1.3-1-1.9-1.5c-0.8,1.8-1.5,3.5-1.9,4.4
	c-1.6-1.6-2.9-2.9-4.1-4.2c-1-1.2-2.8-3-2.5-3.6c1-1.8,2.8-4.3,4.4-4.4c8.4-0.4,16.8-0.2,25.3-0.2c0.2,0.6,0.4,1.1,0.6,1.7
	C470.4,442.3,466.8,443.8,463.1,445.4z"/>
<path class="st0" d="M306.2,439.4c-4.8,4.2-3.6,7.7,0.6,11c-3.9,1-5.9-0.2-18.6-11C294.2,439.4,299.7,439.4,306.2,439.4z"/>
<path class="st1" d="M171.9,521.8c0.7,2.5,2.1,5,2,7.5c-0.1,1.4-2.6,2.7-4,4.1c-0.5-1.2-0.9-2.6-1.5-3.7c-1.5-2.6-3.2-5.2-4.8-7.8
	c-0.8-1.4-1.5-2.8-2.3-4.2l-0.1,0.1c3.6,1.5,7.3,2.9,10.9,4.4C172,522.2,171.9,521.8,171.9,521.8z"/>
<path class="st1" d="M161.3,517.7c-1.3,0.7-2.8,2.2-3.8,1.9c-1.5-0.5-2.7-2.1-3.6-3.5c-0.4-0.6,0.4-2.8,0.8-2.9
	c1.5-0.2,3.4-0.2,4.5,0.6c1.1,0.8,1.4,2.7,2,4.1C161.1,517.8,161.3,517.7,161.3,517.7z"/>
<path class="st1" d="M108.8,448.1c-1.9-1.5-3.5-2.7-5-3.9c1.1-0.8,2.4-2.4,3.1-2.1c2,0.6,3.7,2,5.5,3.1
	C111.4,446,110.4,446.8,108.8,448.1z"/>
<path class="st1" d="M189.4,550.1c-1.2,0.5-2.6,1.7-3.5,1.4c-1.7-0.5-3.1-1.9-4.6-3c1.2-0.8,2.4-2.5,3.5-2.4
	c1.7,0.2,3.2,1.6,4.8,2.4C189.5,549,189.5,549.5,189.4,550.1z"/>
<path class="st0" d="M461.2,210.2c-3.3,4-5.3,3.9-7.6-1.8c2.6,0.6,5.1,1.3,7.7,1.9C461.3,210.4,461.2,210.2,461.2,210.2z"/>
<text transform="matrix(1 0 0 1 49.756 365.5831)" class="st2 st3">KURSA DARAN</text>
</svg>
